<svg xmlns="http://www.w3.org/2000/svg" xmlns:xlink="http://www.w3.org/1999/xlink" viewBox="0 0 408.85 269.81"><defs><style>.cls-1{fill:none;}.cls-2{clip-path:url(#clip-path);}.cls-3{fill:#cbc6dd;}.cls-4{fill:#acd8ec;}.cls-5{fill:#dce8b2;}.cls-6{fill:#fae69d;}.cls-7{fill:#efbf94;}.cls-8{fill:#e68f8d;}.cls-9{clip-path:url(#clip-path-2);}.cls-10{fill:#fff;}</style><clipPath id="clip-path" transform="translate(6.76 0.86)"><path class="cls-1" d="M41.67,117.85c-26.7-44-44-83.22-24-102.34s119.43-9.31,158.77,67,21.36,158.68-19.61,139.33S64.2,155,41.67,117.85Z"/></clipPath><clipPath id="clip-path-2" transform="translate(6.76 0.86)"><path class="cls-1" d="M353.66,117.85c26.7-44,44-83.22,24-102.34s-119.43-9.31-158.76,67-21.37,158.68,19.6,139.33S331.13,155,353.66,117.85Z"/></clipPath></defs><title>Asset 3</title><g id="Layer_2" data-name="Layer 2"><g id="wave_wings" data-name="wave wings"><path d="M155.84,221.82c-3.94-1.59-8-3.13-11.79-5-1.93-.93-3.9-1.8-5.78-2.83l-5.67-3.05c-1.91-1-3.73-2.12-5.59-3.2s-3.71-2.17-5.52-3.32l-5.41-3.51-2.71-1.76-2.64-1.85a325.63,325.63,0,0,1-40-32.74c-3.08-3-6.21-6-9.17-9.19-1.49-1.58-3-3.13-4.46-4.75l-4.33-4.88c-1.46-1.61-2.85-3.3-4.23-5s-2.79-3.36-4.12-5.1c-2.63-3.53-5.31-7-7.73-10.75s-4.73-7.29-7-11-4.45-7.39-6.6-11.15-4.25-7.55-6.25-11.43-3.95-7.8-5.77-11.81a138.26,138.26,0,0,1-9-25.41A72.37,72.37,0,0,1,0,40C0,38.74,0,37.47,0,36.23s.17-2.54.28-3.81A41.92,41.92,0,0,1,2,24.7,32.48,32.48,0,0,1,7.69,13.85L9,12.25l1.42-1.47a29.5,29.5,0,0,1,3.37-2.92,31.31,31.31,0,0,1,3.64-2.21l1.82-.92L21.05,4a37.45,37.45,0,0,1,3.6-1.24A68.45,68.45,0,0,1,38.72.27,104,104,0,0,1,52.39.18,133.15,133.15,0,0,1,78.73,4.51a146.81,146.81,0,0,1,24.77,9,138.76,138.76,0,0,1,22.55,13.23A121.08,121.08,0,0,1,145.29,44a175.47,175.47,0,0,0-45.11-22,169.06,169.06,0,0,0-24-5.82c-4-.69-8.09-1.17-12.13-1.56S56,14.08,52,14.06a106.43,106.43,0,0,0-11.8.78,54.08,54.08,0,0,0-10.93,2.41c-.8.31-1.66.58-2.39.93l-1.13.49-1,.56A17.3,17.3,0,0,0,23,20.36a13.44,13.44,0,0,0-1.38,1.32l-.78.84-.68.9a17.59,17.59,0,0,0-1.23,1.86,21.63,21.63,0,0,0-1.78,4.18,25.35,25.35,0,0,0-1,4.74c-.05.85-.14,1.68-.16,2.55s-.05,1.74,0,2.65a60.83,60.83,0,0,0,1.57,11.07,134.15,134.15,0,0,0,7.85,22.65c3.24,7.53,7,14.92,10.93,22.31,2,3.69,4,7.35,6,11l3.14,5.47c.52.91,1,1.86,1.57,2.72l1.59,2.6c2,3.5,4.42,6.87,6.72,10.27,1.17,1.69,2.45,3.33,3.65,5s2.43,3.35,3.75,5l3.86,4.9c1.3,1.62,2.68,3.18,4,4.79,2.63,3.24,5.45,6.32,8.22,9.45,1.37,1.59,2.84,3.08,4.27,4.61l4.3,4.59,4.42,4.48c1.47,1.5,2.94,3,4.47,4.44,3,2.92,6,5.88,9.15,8.68l4.66,4.27,4.76,4.15,2.38,2.07,2.44,2,4.87,4c1.64,1.33,3.33,2.59,5,3.91s3.3,2.64,5,3.85l5.14,3.73c.85.64,1.74,1.21,2.62,1.79l2.63,1.78C148.53,217.46,152.23,219.52,155.84,221.82Z" transform="translate(6.76 0.86)"/><path d="M238.33,221.82c3.61-2.3,7.31-4.36,10.78-6.83l2.63-1.78c.88-.58,1.77-1.15,2.62-1.79l5.14-3.73c1.73-1.21,3.36-2.56,5-3.85s3.34-2.58,5-3.91l4.88-4,2.43-2,2.39-2.07,4.76-4.15,4.66-4.27c3.14-2.8,6.13-5.76,9.15-8.68,1.53-1.44,3-2.94,4.47-4.44l4.42-4.48,4.3-4.59c1.43-1.53,2.9-3,4.27-4.61,2.77-3.13,5.59-6.21,8.22-9.45,1.34-1.61,2.71-3.17,4-4.79l3.86-4.9c1.31-1.61,2.53-3.28,3.75-5s2.47-3.31,3.65-5c2.3-3.4,4.68-6.77,6.72-10.27l1.59-2.6c.53-.86,1.05-1.81,1.57-2.72l3.14-5.47c2.05-3.65,4.09-7.31,6.05-11,3.89-7.39,7.69-14.78,10.92-22.31a135.1,135.1,0,0,0,7.86-22.65,60.83,60.83,0,0,0,1.57-11.07c.08-.91,0-1.76,0-2.65s-.11-1.7-.16-2.55a26.18,26.18,0,0,0-1-4.74,21.63,21.63,0,0,0-1.78-4.18,19.3,19.3,0,0,0-1.23-1.86l-.68-.9-.78-.84a14.52,14.52,0,0,0-1.39-1.32,16.11,16.11,0,0,0-1.78-1.13l-1-.56-1.14-.49c-.72-.35-1.58-.62-2.38-.93A54.08,54.08,0,0,0,354,14.84a106.43,106.43,0,0,0-11.8-.78q-6,0-12.09.5c-4,.39-8.08.87-12.12,1.56a169.06,169.06,0,0,0-24,5.82,175.53,175.53,0,0,0-45.12,22,121.15,121.15,0,0,1,19.25-17.23,138.66,138.66,0,0,1,22.54-13.23,146.92,146.92,0,0,1,24.78-9A133,133,0,0,1,341.78.18a104.06,104.06,0,0,1,13.67.09,68.47,68.47,0,0,1,14.06,2.48c1.2.39,2.39.71,3.61,1.24l1.8.74,1.83.92a32.17,32.17,0,0,1,3.64,2.21,29.5,29.5,0,0,1,3.37,2.92l1.42,1.47,1.3,1.6a34.7,34.7,0,0,1,2.37,3.38,34.8,34.8,0,0,1,3.34,7.47,42,42,0,0,1,1.66,7.72c.11,1.27.24,2.55.28,3.81s.08,2.51,0,3.73a71.62,71.62,0,0,1-2,14.13,139,139,0,0,1-9,25.41c-1.82,4-3.77,7.94-5.78,11.81S373.19,99,371,102.74s-4.36,7.46-6.59,11.15-4.43,7.28-7,11-5.11,7.22-7.73,10.75c-1.33,1.74-2.74,3.4-4.12,5.1s-2.77,3.38-4.23,5L337,150.59c-1.46,1.62-3,3.17-4.46,4.75-3,3.17-6.09,6.15-9.18,9.19a324.88,324.88,0,0,1-40,32.74l-2.63,1.85-2.71,1.76-5.41,3.51c-1.81,1.15-3.68,2.23-5.53,3.32s-3.67,2.21-5.59,3.2L255.9,214c-1.88,1-3.85,1.9-5.78,2.83C246.29,218.69,242.27,220.23,238.33,221.82Z" transform="translate(6.76 0.86)"/><g class="cls-2"><path class="cls-3" d="M141.13,261c-3.35-1.57-91.53-35.31-128.78-120.85S.69,7.19,18.64,3.08s123-13.08,155.15,25.1S259.37,316.34,141.13,261Z" transform="translate(6.76 0.86)"/><path class="cls-4" d="M175.89,265.6C145.07,261.69,71.15,212.55,49,144.82S41,37.28,81.9,34.65s92,24.73,122,101.84S223.46,271.64,175.89,265.6Z" transform="translate(6.76 0.86)"/><path class="cls-5" d="M136.63,234.42s-62-30.21-73.34-65.91S37.08,64.64,86.23,69s83,12,115.22,57.86S208.82,276.07,136.63,234.42Z" transform="translate(6.76 0.86)"/><path class="cls-6" d="M154.63,249.14C115.34,222.72,90,212.69,79.68,177S78,30.17,205.54,128.91,154.63,249.14,154.63,249.14Z" transform="translate(6.76 0.86)"/><path class="cls-7" d="M154.33,231.85s-47.83-11.91-52.92-33.13-20.22-63.86,17.7-72.93S204.94,106,217,174.21,176.91,245,154.33,231.85Z" transform="translate(6.76 0.86)"/><path class="cls-8" d="M171.42,234c-27.34,2.58-42.09-31.83-47.41-47.17s-2-46.92,27.25-47.8,62.05,16.55,62.92,42.06S196.47,231.64,171.42,234Z" transform="translate(6.76 0.86)"/></g><g class="cls-9"><path class="cls-3" d="M254.2,261c3.36-1.57,91.53-35.31,128.78-120.85S394.64,7.19,376.69,3.08,253.65-10,221.54,28.18,136,316.34,254.2,261Z" transform="translate(6.76 0.86)"/><path class="cls-4" d="M219.45,265.6c30.81-3.91,104.74-53.05,126.91-120.78S354.3,37.28,313.43,34.65s-92,24.73-122,101.84S171.88,271.64,219.45,265.6Z" transform="translate(6.76 0.86)"/><path class="cls-5" d="M258.7,234.42s62-30.21,73.34-65.91S358.26,64.64,309.1,69s-83,12-115.22,57.86S186.52,276.07,258.7,234.42Z" transform="translate(6.76 0.86)"/><path class="cls-6" d="M240.7,249.14C280,222.72,305.32,212.69,315.65,177s1.72-146.85-125.86-48.11S240.7,249.14,240.7,249.14Z" transform="translate(6.76 0.86)"/><path class="cls-7" d="M241,231.85s47.83-11.91,52.92-33.13,20.22-63.86-17.69-72.93S190.39,106,178.36,174.21,218.43,245,241,231.85Z" transform="translate(6.76 0.86)"/><path class="cls-8" d="M223.91,234c27.34,2.58,42.1-31.83,47.41-47.17s2-46.92-27.24-47.8S182,155.58,181.16,181.09,198.86,231.64,223.91,234Z" transform="translate(6.76 0.86)"/></g><path class="cls-10" d="M197.67,170.55l2.56,15.1a7.56,7.56,0,0,0,6.17,6.17l15.1,2.57L206.4,197a7.57,7.57,0,0,0-6.17,6.17l-2.56,15.1-2.57-15.1a7.56,7.56,0,0,0-6.17-6.17l-15.1-2.56,15.1-2.57a7.54,7.54,0,0,0,6.17-6.17Z" transform="translate(6.76 0.86)"/></g><g id="text"><path d="M82.11,102.67a115.53,115.53,0,0,0,22-18.94c6.39-6,9.46-9.12,15.34-15.43A135.49,135.49,0,0,0,127.8,57c2.7-4.06,4.78-7.5,6.32-10.37a101.38,101.38,0,0,0,27.93,1.46c-.77,3.05-1.46,6.65-2.09,10.84a85.68,85.68,0,0,0-1.06,11.56c.4,6.74.73,10.07,1.64,16.69a70.15,70.15,0,0,0,4.11,21.32A231.66,231.66,0,0,1,136.71,111c.89-2.93,1.49-7.41,2-13.46l-.1-1.87a122.61,122.61,0,0,1-18.45-.89c-.63.75-.94,1.13-1.58,1.88-4.16,5.64-7,9.95-8.48,13A119.48,119.48,0,0,1,82.11,102.67ZM126.33,86.1a114.72,114.72,0,0,0,13.35.63c-.12-3.9-.14-5.86-.08-9.8a66.92,66.92,0,0,1,2-10.91l-1,0a110.08,110.08,0,0,1-6.47,10.71C131.07,80.47,129.52,82.36,126.33,86.1Z" transform="translate(6.76 0.86)"/><path d="M210.13,86.12c-2.79-5.36-5.32-10.23-12.25-8.93a13.31,13.31,0,0,0-3.79,1.13L194,81.85c-.24,8.74.28,15.88,1.74,21.33-9.28,1.78-18.6,3.47-28,4.86,2.51-6.13,4.36-13.67,5.71-22.61,1-6.82,1.54-10.23,2.57-17.05a138.86,138.86,0,0,0,1.8-22c9.73-1.48,19.42-3.38,29.1-5.19,7.12-1.29,13.06,0,17.57,4A15,15,0,0,1,229.07,53a11.64,11.64,0,0,1-1,8.7,16.2,16.2,0,0,1-7,6.3,41.46,41.46,0,0,1-11.44,3.67l-.75.13c0,.2,0,.3,0,.5l.17,0c4.33-.79,7.24,1.22,10,2.73a10.81,10.81,0,0,0,6.7,1.41c5.67-.84,9.12-4.13,10-10,2.61,9.86,3.93,14.78,6.58,24.63a9.19,9.19,0,0,1-4.05,4.55,18,18,0,0,1-7.15,2.65C217.57,100.27,213.6,92.78,210.13,86.12ZM194.27,71.85l10.88-2c4.45-.82,7.08-3,6.79-6.16-.27-2.92-3.11-4.34-6.84-3.65l-10.55,2C194.44,65.92,194.38,67.9,194.27,71.85Z" transform="translate(6.76 0.86)"/><path d="M266.53,94.25c-.59-5.46-2.66-12.34-6-20.64l-7.18-17.74c-3-.06-4.45,0-7.41.06a16,16,0,0,0-10,3.43c-1.1-8.77-1.74-13.13-3.22-21.85,14.4-1.24,27.37.59,41.24,4.28q8.37,11.81,17,23.46a38.26,38.26,0,0,0-12.57-6.19c-2.76-.7-4.14-1-6.91-1.48l9.55,18a147.68,147.68,0,0,0,13.47,21.36A136.62,136.62,0,0,0,266.53,94.25Z" transform="translate(6.76 0.86)"/><path d="M50.05,169.85a49.52,49.52,0,0,1-12.31-6.29Q48.06,153.8,58.32,144c.54,3.3,2.61,6.11,6.19,8.32a31.37,31.37,0,0,0,12.76,4.17c7.08.84,11.53-.17,13.28-2.61,2.8-3.89-8.71-4.11-16.63-7.54-3.29-1.31-5.51-3.48-6.25-6s1-6.21,5.1-10.36a43.27,43.27,0,0,1,12-8.4,47.81,47.81,0,0,1,13-4.16,44.59,44.59,0,0,1,12.34-.34,36.39,36.39,0,0,1,8.26,1.86,31.41,31.41,0,0,1,6.26,2.91L112.22,141.7a13.09,13.09,0,0,0-5.69-4.61,27.69,27.69,0,0,0-9.26-2.56,24.54,24.54,0,0,0-7.21.15,8.12,8.12,0,0,0-4.89,2.43c-3.62,4.25,4.94,5.61,12.45,7.29,3.8.85,7.32,2.34,9.39,4.29s2.23,5.58-.59,10.34c-3.37,5.67-9.07,10-16.43,12.35a60.44,60.44,0,0,1-25.26,2.11A63.18,63.18,0,0,1,50.05,169.85Z" transform="translate(6.76 0.86)"/><path d="M102.72,174.46a132.26,132.26,0,0,0,13-19.87l8.37-15.23a170,170,0,0,0,9.55-19.91c9.5,0,14.25-.2,23.74-.87,10.9-1.21,17.14,8.71,14.92,18.68-1.39,6.25-3.77,11.6-7.87,15.47a24.11,24.11,0,0,1-14.84,6.59c-4.35.35-7.8-.41-10.22-2.23s-3.3-4.47-2.74-8l-.75,0c-.95,2.22-1.43,3.33-2.39,5.55-3.51,8.14-5.62,14.5-6.22,19.09C117.43,174.33,112.53,174.48,102.72,174.46Zm48.55-28a9.56,9.56,0,0,0,3.7-5c1.35-4.25-.64-7-5.5-6.67a54,54,0,0,0-7.85,1c-.76,1.77-1.14,2.66-1.91,4.43-1,2.71-1,4.85.16,6.39a5.78,5.78,0,0,0,5.33,2.09A11.54,11.54,0,0,0,151.27,146.45Z" transform="translate(6.76 0.86)"/><path d="M171.26,170.08a71.43,71.43,0,0,0,2.88-9.16,103.76,103.76,0,0,0,2.11-10.4c.9-5.92,1.35-8.89,2.24-14.81.51-3.33.89-6.74,1.16-10.33s.41-6.55.39-8.89c11.89-1.32,23.76-2.81,35.65-4.14,2,7.44,3.09,11.15,5.39,18.56a8.26,8.26,0,0,0-4.29-1.28,44.68,44.68,0,0,0-7.85.39c-5.7.66-8.55,1-14.24,1.68-.07,2.48-.11,3.71-.18,6.18l11.77-1.39q6-.72,9-1.34c.39,3,.58,4.57,1,7.62a79.17,79.17,0,0,0-9.55.67l-12.39,1.47c-.07,2.28-.1,3.42-.17,5.71,5.65-.68,8.47-1,14.11-1.68a74,74,0,0,0,12.24-2.17,16,16,0,0,0,5.38-2.6c.36,7.79.47,11.7.52,19.53C208,165.77,189.64,168,171.26,170.08Z" transform="translate(6.76 0.86)"/><path d="M239.77,153.89a26.51,26.51,0,0,1-11.29-16.65c-1.6-7.12-.53-13.45,1.81-17.87a21.05,21.05,0,0,1,4.39-5.71,19.46,19.46,0,0,1,12.67-5,40.25,40.25,0,0,1,8.94.54,41.21,41.21,0,0,1,8.09,2.16c4.22,7,6.33,10.43,10.53,17.38a39.08,39.08,0,0,0-8.31-3.12,29.69,29.69,0,0,0-8.69-1c-4.53.18-7.85,1.32-10.05,3.32s-2.86,4.66-1.69,7.88c2.56,7.06,12.26,9.3,21.9,8.91a31.54,31.54,0,0,0,10.27-1.95c2.84-1.12,4.82-2.55,5.91-4.31l12,18.79A95.72,95.72,0,0,1,271.72,161C261.07,161.09,249.44,160.19,239.77,153.89Z" transform="translate(6.76 0.86)"/><path d="M320.2,160.41c-2.39-4.72-6.58-10.76-12.37-18.09l-12.4-15.68c-2.61-.22-3.92-.31-6.54-.46-3.66-.21-6.23.49-7.87,2-3.92-7.52-6-11.28-10.23-18.8a195.88,195.88,0,0,1,36.51,4.44q11,10.23,22.21,20.3a43.82,43.82,0,0,0-12-4.51c-2.44-.46-3.66-.67-6.1-1.05l14.44,15.92a235.66,235.66,0,0,0,18.87,18.87A238.43,238.43,0,0,0,320.2,160.41Z" transform="translate(6.76 0.86)"/></g></g></svg>