<svg xmlns="http://www.w3.org/2000/svg" xmlns:xlink="http://www.w3.org/1999/xlink" viewBox="0 0 362.33 352.04"><defs><style>.cls-1{fill:none;}.cls-2{clip-path:url(#clip-path);}.cls-3{fill:#cbc6dd;}.cls-4{fill:#acd8ec;}.cls-5{fill:#dce8b2;}.cls-6{fill:#fae69d;}.cls-7{fill:#efbf94;}.cls-8{fill:#e68f8d;}</style><clipPath id="clip-path" transform="translate(0 2.19)"><path class="cls-1" d="M205.33,97.83c12.26-50,27.71-90,55.41-89.32s91,77.86,64.91,159.62-97.1,127.31-112.39,84.66S195,140,205.33,97.83Z"/></clipPath></defs><title>Asset 2</title><g id="Layer_2" data-name="Layer 2"><g id="wave_wings" data-name="wave wings"><path d="M212.54,252.08c-1.66-3.92-3.41-7.85-4.77-11.9-.72-2-1.49-4-2.09-6.09l-1.85-6.16c-.65-2.05-1.14-4.14-1.69-6.22s-1.1-4.16-1.56-6.25l-1.35-6.31-.66-3.16-.56-3.17a323.91,323.91,0,0,1-5.11-51.42c0-4.32-.14-8.65,0-13,.07-2.17.09-4.34.2-6.51l.39-6.51c.11-2.18.32-4.35.54-6.52s.4-4.35.7-6.53c.63-4.35,1.19-8.7,2.13-13.06s1.81-8.5,2.82-12.71,2.08-8.37,3.22-12.55,2.33-8.35,3.66-12.5,2.72-8.3,4.27-12.43a138.58,138.58,0,0,1,11.57-24.36A71.85,71.85,0,0,1,231,13.31c.8-.92,1.76-1.76,2.64-2.64S235.53,9,236.5,8.18a41.85,41.85,0,0,1,6.63-4.29A35.18,35.18,0,0,1,250.77,1a35.53,35.53,0,0,1,4.08-.71l2-.21,2,0a30.87,30.87,0,0,1,4.45.31,33.69,33.69,0,0,1,4.13,1l1.94.64,1.81.76a37.36,37.36,0,0,1,3.42,1.66,68.51,68.51,0,0,1,11.7,8.2,103.84,103.84,0,0,1,9.73,9.6,133.64,133.64,0,0,1,15.56,21.69,146,146,0,0,1,11.15,23.89,137.77,137.77,0,0,1,6.58,25.29,120.22,120.22,0,0,1,1.43,25.8,175.77,175.77,0,0,0-16.31-47.49,170.39,170.39,0,0,0-12.84-21.07c-2.37-3.34-4.89-6.54-7.47-9.67s-5.37-6-8.19-8.9a106,106,0,0,0-8.9-7.79,53.82,53.82,0,0,0-9.43-6c-.79-.35-1.58-.77-2.35-1l-1.15-.45-1.1-.32a18,18,0,0,0-2.06-.46,12.75,12.75,0,0,0-1.91,0l-1.14,0-1.12.15a20.24,20.24,0,0,0-2.19.45,21.92,21.92,0,0,0-4.22,1.7,25.48,25.48,0,0,0-4,2.66c-.64.57-1.29,1.09-1.92,1.7s-1.26,1.18-1.85,1.88a62.22,62.22,0,0,0-6.72,9,134.61,134.61,0,0,0-10.46,21.57c-3,7.61-5.58,15.52-8,23.5-1.23,4-2.38,8-3.51,12.06l-1.65,6.08c-.27,1-.58,2-.81,3l-.71,3c-1,3.92-1.73,8-2.51,12-.37,2-.62,4.08-1,6.12s-.65,4.09-.86,6.16l-.73,6.19c-.22,2.07-.35,4.15-.54,6.23-.44,4.15-.62,8.32-.87,12.5-.16,2.09-.17,4.18-.24,6.28l-.22,6.28,0,6.29c0,2.1,0,4.21,0,6.3.06,4.2.09,8.41.33,12.61l.28,6.31.43,6.3.22,3.16.29,3.15.6,6.3c.22,2.1.53,4.18.76,6.28s.47,4.21.84,6.29l1,6.26c.15,1.06.37,2.09.58,3.12l.6,3.12C210.46,243.82,211.62,247.89,212.54,252.08Z" transform="translate(0 2.19)"/><g class="cls-2"><path class="cls-3" d="M174.45,269.37c-1.26-3.48-39.76-89.69-5.61-176.51S254.61-9.4,270.2.39s96.26,77.75,92,127.45S218.91,392.12,174.45,269.37Z" transform="translate(0 2.19)"/><path class="cls-4" d="M195.76,297.21c-19-24.56-36.55-111.58-4.33-175.15S261.86,40.4,292.62,67.44,340.21,150,306.84,225.69,225.13,335.11,195.76,297.21Z" transform="translate(0 2.19)"/><path class="cls-5" d="M190.05,247.4s-22.46-65.19-5.25-98.47,54.91-92,86.62-54.17S321.57,161.93,312,217.14,211.64,327.9,190.05,247.4Z" transform="translate(0 2.19)"/><path class="cls-6" d="M192.37,270.53c-9.1-46.46-19.91-71.46-2-104s102.62-105.06,123,55S192.37,270.53,192.37,270.53Z" transform="translate(0 2.19)"/><path class="cls-7" d="M204.39,258.1s-25.4-42.24-14-60.84,30.86-59.46,64.09-39.06,74.71,46.67,35,103.43S211.06,283.35,204.39,258.1Z" transform="translate(0 2.19)"/><path class="cls-8" d="M215,271.7c-21.15-17.51-7.26-52.26-.17-66.88s31.78-34.56,53.07-14.53S300,245.88,282.6,264.52,234.34,287.75,215,271.7Z" transform="translate(0 2.19)"/></g></g><g id="text"><path d="M0,349.85c17.77-28.42,34.44-57.28,48.73-87.62,13.1-24.37,22.76-48.44,31.65-74.68,5.47-21,10.1-42.15,13.67-63.37,3.33-19.83,6.13-40,7.87-60.23h103c2.11,12.9,5.1,25.7,8.25,38.27,3.8,15.14,8.29,30.21,13.33,45.11C238,175,248.11,202.74,258,231c12.69,40.67,26.39,82.21,48.57,118.87H202.79c-1.49-24.32-6.87-48.35-12.14-72.06-1.26-3.58-1.89-5.34-3.12-8.82-22.93,6.82-45.54,14.58-68.47,21.4-1.17,3.51-1.77,5.24-3,8.64-4.6,16.62-10.16,33.6-11.92,50.84ZM128.73,249.51c16.55-7,32.89-14.53,49.45-21.55q-7.32-19.38-14.51-38.82c-4.33-14.71-6.43-29.9-8.47-45.07l-3.81,1.65c-2.15,18-4.28,36-8.17,53.67Q136.41,224.59,128.73,249.51Z" transform="translate(0 2.19)"/></g></g></svg>